<svg width="40" height="40" viewBox="0 0 40 40" fill="none" xmlns="http://www.w3.org/2000/svg">
<rect width="40" height="40" rx="12" fill="#427DAA"/>
<path d="M24.4967 22.3041C24.8752 23.8192 25.261 25.3634 25.6396 26.8785C25.9599 28.1605 25.326 29.3404 24.0513 29.8137C22.9222 30.2505 21.582 29.7186 20.9922 28.5968C20.5771 27.8028 20.4243 26.9433 20.1841 26.1056C20.1186 25.8434 20.1769 25.4574 19.8855 25.4063C19.5286 25.3407 19.4849 25.785 19.3246 26.0108C18.4503 27.4675 17.576 28.9241 16.7018 30.3807C15.7328 31.9539 13.8608 32.143 12.6009 30.8172C11.9673 30.1397 11.8509 28.8067 12.3027 27.889C13.0531 26.3085 14.0512 24.8519 14.9838 23.3807C15.1441 23.1549 15.45 22.8927 15.217 22.5795C15.0277 22.3173 14.6853 22.5576 14.4522 22.6158C13.7456 22.7614 13.0536 22.9652 12.3325 23.0525C10.9194 23.2198 9.7177 22.4986 9.39739 21.2166C9.09893 20.022 9.84939 18.5653 11.1605 18.2377C14.2781 17.4588 17.3084 16.3303 20.5134 15.901C21.9192 15.7045 23.0262 16.4185 23.3756 17.8171C23.7469 19.303 24.1254 20.8181 24.4967 22.3041Z" fill="white"/>
<path d="M28.1133 13.7681C27.0469 15.5449 24.6725 16.1162 22.8803 15.0756C21.0778 13.9937 20.4601 11.6965 21.5574 9.86827C22.6392 8.06577 24.9776 7.43776 26.7802 8.51962C28.5312 9.57058 29.1643 12.0171 28.1133 13.7681Z" fill="white"/>
</svg>
