<svg width="106" height="21" viewBox="0 0 106 21" fill="none" xmlns="http://www.w3.org/2000/svg">
<path d="M3.03 20C2.05933 20 1.366 19.8093 0.95 19.428C0.534 19.0467 0.326 18.5007 0.326 17.79C0.326 17.4433 0.352 16.854 0.404 16.022C0.456 15.1727 0.525333 14.2107 0.612 13.136C0.698667 12.0613 0.785333 10.926 0.872 9.73C0.958667 8.534 1.04533 7.40733 1.132 6.35C1.21867 5.29267 1.288 4.36533 1.34 3.568C1.392 2.77067 1.418 2.22467 1.418 1.93C1.418 1.67 1.55667 1.54 1.834 1.54H10.986C11.09 1.54 11.1853 1.566 11.272 1.618C11.3587 1.67 11.402 1.76533 11.402 1.904L11.298 3.438C11.2633 3.958 11.116 4.38267 10.856 4.712C10.6133 5.024 10.102 5.18 9.322 5.18H5.734L5.474 8.846H9.166C9.27 8.846 9.36533 8.872 9.452 8.924C9.53867 8.976 9.582 9.07133 9.582 9.21L9.478 10.744C9.44333 11.264 9.296 11.6887 9.036 12.018C8.79333 12.33 8.282 12.486 7.502 12.486H5.24L4.954 16.36H10.674C10.778 16.36 10.8733 16.3947 10.96 16.464C11.0467 16.516 11.09 16.6027 11.09 16.724L10.986 18.258C10.9513 18.778 10.804 19.2027 10.544 19.532C10.3013 19.844 9.79 20 9.01 20H3.03ZM18.9717 20.26C18.2957 20.26 17.6457 20.1387 17.0217 19.896C16.415 19.6533 15.8777 19.272 15.4097 18.752C14.959 18.232 14.595 17.5733 14.3177 16.776C14.0577 15.9787 13.9277 15.0167 13.9277 13.89C13.9277 13.3873 13.9623 12.8327 14.0317 12.226C14.101 11.602 14.2223 10.978 14.3957 10.354C14.569 9.73 14.8117 9.12333 15.1237 8.534C15.4357 7.94467 15.8257 7.42467 16.2937 6.974C16.779 6.506 17.351 6.13333 18.0097 5.856C18.6857 5.57867 19.4743 5.44 20.3757 5.44C21.2423 5.44 21.9357 5.596 22.4557 5.908C22.993 6.20267 23.331 6.72267 23.4697 7.468C23.5043 6.792 23.539 6.20267 23.5737 5.7C23.6083 5.19733 23.6343 4.72933 23.6517 4.296C23.6863 3.86267 23.721 3.42933 23.7557 2.996C23.7903 2.56267 23.825 2.06867 23.8597 1.514C23.877 1.13267 23.9203 0.907332 23.9897 0.837999C24.0243 0.803333 24.0677 0.785999 24.1197 0.785999C24.1717 0.768666 24.267 0.76 24.4057 0.76H25.4197C25.9397 0.76 26.373 0.820666 26.7197 0.941999C27.0663 1.06333 27.3437 1.228 27.5517 1.436C27.7597 1.644 27.907 1.88667 27.9937 2.164C28.0803 2.424 28.1237 2.70133 28.1237 2.996C28.1237 2.996 28.1063 3.21267 28.0717 3.646C28.037 4.07933 27.9937 4.66 27.9417 5.388C27.8897 6.09867 27.829 6.91333 27.7597 7.832C27.6903 8.75067 27.621 9.704 27.5517 10.692C27.4823 11.6627 27.413 12.6333 27.3437 13.604C27.2743 14.5573 27.205 15.4413 27.1357 16.256C27.0663 17.0533 27.0057 17.7467 26.9537 18.336C26.919 18.908 26.893 19.2893 26.8757 19.48C26.841 19.688 26.7977 19.8267 26.7457 19.896C26.6937 19.9653 26.5463 20 26.3037 20H25.3677C25.0037 20 24.657 19.974 24.3277 19.922C24.0157 19.8527 23.7383 19.7487 23.4957 19.61C23.2703 19.454 23.0883 19.2547 22.9497 19.012C22.8283 18.752 22.7677 18.4227 22.7677 18.024C22.4557 18.6827 21.979 19.22 21.3377 19.636C20.7137 20.052 19.925 20.26 18.9717 20.26ZM21.2337 8.898C20.3497 8.898 19.691 9.288 19.2577 10.068C18.8417 10.8307 18.6337 11.862 18.6337 13.162C18.6337 13.6127 18.6597 14.0547 18.7117 14.488C18.781 14.9213 18.8937 15.3113 19.0497 15.658C19.2057 16.0047 19.4137 16.282 19.6737 16.49C19.951 16.698 20.2977 16.802 20.7137 16.802C21.459 16.802 22.083 16.438 22.5857 15.71C23.0883 14.982 23.3397 13.838 23.3397 12.278C23.3397 11.8447 23.3137 11.4287 23.2617 11.03C23.2097 10.614 23.1057 10.25 22.9497 9.938C22.7937 9.626 22.577 9.37467 22.2997 9.184C22.0223 8.99333 21.667 8.898 21.2337 8.898ZM36.298 7.91C36.298 8.274 36.2633 8.78533 36.194 9.444C36.142 10.1027 36.0813 10.7873 36.012 11.498C35.96 12.2087 35.8993 12.876 35.83 13.5C35.778 14.124 35.752 14.5747 35.752 14.852C35.752 15.4587 35.8993 15.9353 36.194 16.282C36.506 16.6113 36.9307 16.776 37.468 16.776C37.936 16.776 38.326 16.594 38.638 16.23C38.9673 15.8487 39.2273 15.3633 39.418 14.774C39.626 14.1673 39.7907 13.4827 39.912 12.72C40.0333 11.9573 40.12 11.186 40.172 10.406C40.2413 9.626 40.2933 8.872 40.328 8.144C40.38 7.39867 40.432 6.75733 40.484 6.22C40.5013 6.08133 40.5533 5.96 40.64 5.856C40.7267 5.752 40.8653 5.7 41.056 5.7H41.992C42.5294 5.7 42.9627 5.76067 43.292 5.882C43.6387 5.986 43.9073 6.142 44.098 6.35C44.306 6.558 44.4447 6.818 44.514 7.13C44.6007 7.42467 44.644 7.77133 44.644 8.17C44.644 8.43 44.6267 8.80267 44.592 9.288C44.5747 9.756 44.5313 10.4147 44.462 11.264C44.3927 12.096 44.306 13.162 44.202 14.462C44.1153 15.7447 44.0027 17.3393 43.864 19.246C43.8293 19.61 43.786 19.8267 43.734 19.896C43.6993 19.9653 43.5607 20 43.318 20H42.304C41.784 20 41.3507 19.9393 41.004 19.818C40.6747 19.6967 40.406 19.5407 40.198 19.35C39.99 19.1593 39.8427 18.934 39.756 18.674C39.6693 18.414 39.6173 18.1453 39.6 17.868C39.34 18.3187 39.0453 18.7 38.716 19.012C38.404 19.324 38.0747 19.5753 37.728 19.766C37.3813 19.9393 37.026 20.0607 36.662 20.13C36.298 20.2167 35.9427 20.26 35.596 20.26C34.9373 20.26 34.348 20.156 33.828 19.948C33.308 19.7227 32.866 19.428 32.502 19.064C32.1553 18.7 31.8867 18.2667 31.696 17.764C31.5053 17.2613 31.41 16.724 31.41 16.152C31.41 15.9267 31.4187 15.5627 31.436 15.06C31.4707 14.54 31.5053 13.9593 31.54 13.318C31.592 12.6767 31.644 12.0007 31.696 11.29C31.748 10.562 31.7913 9.87733 31.826 9.236C31.878 8.59467 31.9213 8.03133 31.956 7.546C32.008 7.06067 32.0427 6.714 32.06 6.506C32.0947 6.194 32.164 5.986 32.268 5.882C32.372 5.76067 32.5453 5.7 32.788 5.7H33.62C34.1573 5.7 34.5993 5.752 34.946 5.856C35.2927 5.96 35.5613 6.10733 35.752 6.298C35.96 6.48867 36.0987 6.72267 36.168 7C36.2547 7.26 36.298 7.56333 36.298 7.91Z" fill="#427DAA"/>
<path d="M60.0259 20C59.1245 20 58.4745 19.818 58.0759 19.454C57.6945 19.0727 57.4865 18.6047 57.4519 18.05C57.2612 18.6393 56.8539 19.1593 56.2299 19.61C55.6232 20.0433 54.7392 20.26 53.5779 20.26C52.9019 20.26 52.2432 20.13 51.6019 19.87C50.9605 19.5927 50.3885 19.142 49.8859 18.518C49.3832 17.894 48.9759 17.062 48.6639 16.022C48.3692 14.982 48.2219 13.6907 48.2219 12.148C48.2219 11.5587 48.2565 10.8827 48.3259 10.12C48.3952 9.34 48.5339 8.55133 48.7419 7.754C48.9672 6.93933 49.2792 6.15067 49.6779 5.388C50.0939 4.608 50.6312 3.91467 51.2899 3.308C51.9659 2.70133 52.7892 2.216 53.7599 1.852C54.7305 1.47067 55.8919 1.28 57.2439 1.28C58.1279 1.28 58.9165 1.37533 59.6099 1.566C60.3205 1.75667 60.9185 2.02533 61.4039 2.372C61.9065 2.71867 62.2879 3.14333 62.5479 3.646C62.8252 4.14867 62.9639 4.712 62.9639 5.336C62.9639 6.34133 62.6345 7.104 61.9759 7.624C61.3172 8.12667 60.3899 8.378 59.1939 8.378C58.8125 8.378 58.5785 8.352 58.4919 8.3C58.4225 8.23067 58.3792 8.10067 58.3619 7.91C58.3272 7.598 58.3012 7.286 58.2839 6.974C58.2839 6.662 58.2405 6.376 58.1539 6.116C58.0845 5.856 57.9545 5.648 57.7639 5.492C57.5732 5.336 57.2699 5.258 56.8539 5.258C56.0045 5.258 55.3285 5.50067 54.8259 5.986C54.3232 6.47133 53.9419 7.06067 53.6819 7.754C53.4219 8.44733 53.2572 9.16667 53.1879 9.912C53.1185 10.64 53.0839 11.2553 53.0839 11.758C53.0839 12.59 53.1359 13.292 53.2399 13.864C53.3439 14.4187 53.4912 14.878 53.6819 15.242C53.8899 15.5887 54.1325 15.84 54.4099 15.996C54.6872 16.1347 55.0079 16.204 55.3719 16.204C56.0305 16.204 56.5852 16.0653 57.0359 15.788C57.4865 15.5107 57.7552 15.008 57.8419 14.28L57.9979 12.824C58.0499 12.3213 58.1192 11.914 58.2059 11.602C58.2925 11.2727 58.5005 11.108 58.8299 11.108H60.2599C60.6932 11.108 61.0399 11.16 61.2999 11.264C61.5772 11.3507 61.7852 11.5067 61.9239 11.732C62.0799 11.94 62.1839 12.2173 62.2359 12.564C62.2879 12.9107 62.3139 13.3353 62.3139 13.838C62.3139 14.1847 62.2965 14.644 62.2619 15.216C62.2445 15.788 62.2099 16.3687 62.1579 16.958C62.1232 17.5473 62.0799 18.0933 62.0279 18.596C61.9759 19.0813 61.9325 19.4193 61.8979 19.61C61.8632 19.766 61.8199 19.87 61.7679 19.922C61.7159 19.974 61.6119 20 61.4559 20H60.0259ZM69.1167 20C68.146 20 67.4527 19.8093 67.0367 19.428C66.6207 19.0467 66.4127 18.5007 66.4127 17.79C66.4127 17.4433 66.4387 16.854 66.4907 16.022C66.5427 15.1727 66.612 14.2107 66.6987 13.136C66.7854 12.0613 66.872 10.926 66.9587 9.73C67.0454 8.534 67.132 7.40733 67.2187 6.35C67.3054 5.29267 67.3747 4.36533 67.4267 3.568C67.4787 2.77067 67.5047 2.22467 67.5047 1.93C67.5047 1.67 67.6434 1.54 67.9207 1.54H69.3507C70.408 1.54 71.1187 1.76533 71.4827 2.216C71.8467 2.66667 72.0287 3.334 72.0287 4.218C72.0287 4.30467 72.0114 4.582 71.9767 5.05C71.9594 5.518 71.9247 6.10733 71.8727 6.818C71.8207 7.52867 71.76 8.326 71.6907 9.21C71.6387 10.0767 71.578 10.9693 71.5087 11.888C71.4567 12.8067 71.396 13.708 71.3267 14.592C71.2747 15.4587 71.2227 16.2473 71.1707 16.958C71.1187 17.6687 71.0754 18.2667 71.0407 18.752C71.006 19.22 70.98 19.506 70.9627 19.61C70.9454 19.7487 70.9107 19.8527 70.8587 19.922C70.8067 19.974 70.7027 20 70.5467 20H69.1167ZM87.4325 20C86.5312 20 85.8812 19.818 85.4825 19.454C85.1012 19.0727 84.8932 18.6047 84.8585 18.05C84.6678 18.6393 84.2605 19.1593 83.6365 19.61C83.0298 20.0433 82.1458 20.26 80.9845 20.26C80.3085 20.26 79.6498 20.13 79.0085 19.87C78.3672 19.5927 77.7952 19.142 77.2925 18.518C76.7898 17.894 76.3825 17.062 76.0705 16.022C75.7758 14.982 75.6285 13.6907 75.6285 12.148C75.6285 11.5587 75.6632 10.8827 75.7325 10.12C75.8018 9.34 75.9405 8.55133 76.1485 7.754C76.3738 6.93933 76.6858 6.15067 77.0845 5.388C77.5005 4.608 78.0378 3.91467 78.6965 3.308C79.3725 2.70133 80.1958 2.216 81.1665 1.852C82.1372 1.47067 83.2985 1.28 84.6505 1.28C85.5345 1.28 86.3232 1.37533 87.0165 1.566C87.7272 1.75667 88.3252 2.02533 88.8105 2.372C89.3132 2.71867 89.6945 3.14333 89.9545 3.646C90.2318 4.14867 90.3705 4.712 90.3705 5.336C90.3705 6.34133 90.0412 7.104 89.3825 7.624C88.7238 8.12667 87.7965 8.378 86.6005 8.378C86.2192 8.378 85.9852 8.352 85.8985 8.3C85.8292 8.23067 85.7858 8.10067 85.7685 7.91C85.7338 7.598 85.7078 7.286 85.6905 6.974C85.6905 6.662 85.6472 6.376 85.5605 6.116C85.4912 5.856 85.3612 5.648 85.1705 5.492C84.9798 5.336 84.6765 5.258 84.2605 5.258C83.4112 5.258 82.7352 5.50067 82.2325 5.986C81.7298 6.47133 81.3485 7.06067 81.0885 7.754C80.8285 8.44733 80.6638 9.16667 80.5945 9.912C80.5252 10.64 80.4905 11.2553 80.4905 11.758C80.4905 12.59 80.5425 13.292 80.6465 13.864C80.7505 14.4187 80.8978 14.878 81.0885 15.242C81.2965 15.5887 81.5392 15.84 81.8165 15.996C82.0938 16.1347 82.4145 16.204 82.7785 16.204C83.4372 16.204 83.9918 16.0653 84.4425 15.788C84.8932 15.5107 85.1618 15.008 85.2485 14.28L85.4045 12.824C85.4565 12.3213 85.5258 11.914 85.6125 11.602C85.6992 11.2727 85.9072 11.108 86.2365 11.108H87.6665C88.0998 11.108 88.4465 11.16 88.7065 11.264C88.9838 11.3507 89.1918 11.5067 89.3305 11.732C89.4865 11.94 89.5905 12.2173 89.6425 12.564C89.6945 12.9107 89.7205 13.3353 89.7205 13.838C89.7205 14.1847 89.7032 14.644 89.6685 15.216C89.6512 15.788 89.6165 16.3687 89.5645 16.958C89.5298 17.5473 89.4865 18.0933 89.4345 18.596C89.3825 19.0813 89.3392 19.4193 89.3045 19.61C89.2698 19.766 89.2265 19.87 89.1745 19.922C89.1225 19.974 89.0185 20 88.8625 20H87.4325ZM100.969 1.28C102.599 1.28 103.803 1.63533 104.583 2.346C105.381 3.05667 105.779 3.984 105.779 5.128C105.779 6.09867 105.511 6.844 104.973 7.364C104.436 7.86667 103.665 8.118 102.659 8.118C102.347 8.118 102.148 8.092 102.061 8.04C101.975 7.97067 101.931 7.84067 101.931 7.65C101.931 7.47667 101.914 7.25133 101.879 6.974C101.862 6.69667 101.801 6.428 101.697 6.168C101.593 5.908 101.429 5.69133 101.203 5.518C100.978 5.32733 100.666 5.232 100.267 5.232C99.7127 5.232 99.2187 5.40533 98.7854 5.752C98.352 6.08133 98.1354 6.51467 98.1354 7.052C98.1354 7.52 98.3087 7.90133 98.6554 8.196C99.0194 8.49067 99.47 8.768 100.007 9.028C100.545 9.27067 101.125 9.522 101.749 9.782C102.391 10.042 102.98 10.3887 103.517 10.822C104.055 11.238 104.497 11.7667 104.843 12.408C105.207 13.032 105.389 13.8293 105.389 14.8C105.389 15.5627 105.259 16.282 104.999 16.958C104.757 17.6167 104.384 18.1973 103.881 18.7C103.396 19.1853 102.772 19.5667 102.009 19.844C101.264 20.1213 100.389 20.26 99.3834 20.26C98.5167 20.26 97.7107 20.1647 96.9654 19.974C96.2374 19.7833 95.596 19.5493 95.0414 19.272C94.504 18.9773 94.0794 18.6653 93.7674 18.336C93.4554 17.9893 93.2994 17.6773 93.2994 17.4C93.2994 16.256 93.36 15.4327 93.4814 14.93C93.62 14.4273 93.8627 14.176 94.2094 14.176C94.452 14.176 94.7034 14.28 94.9634 14.488C95.2407 14.696 95.5527 14.93 95.8994 15.19C96.246 15.45 96.6447 15.684 97.0954 15.892C97.5634 16.1 98.1007 16.204 98.7074 16.204C98.95 16.204 99.184 16.1867 99.4094 16.152C99.652 16.1 99.86 16.022 100.033 15.918C100.224 15.814 100.371 15.6753 100.475 15.502C100.597 15.3287 100.657 15.1207 100.657 14.878C100.657 14.4447 100.493 14.098 100.163 13.838C99.834 13.578 99.418 13.344 98.9154 13.136C98.4127 12.9107 97.8667 12.6853 97.2774 12.46C96.7054 12.2173 96.168 11.8967 95.6654 11.498C95.1627 11.082 94.7467 10.5533 94.4174 9.912C94.088 9.27067 93.9234 8.44733 93.9234 7.442C93.9234 6.31533 94.1314 5.362 94.5474 4.582C94.9807 3.802 95.5267 3.16933 96.1854 2.684C96.8614 2.18133 97.6154 1.826 98.4474 1.618C99.2967 1.39267 100.137 1.28 100.969 1.28Z" fill="#5DB3A4"/>
</svg>
